<mxfile host="65bd71144e">
    <diagram id="WWbYQ2NUVVgn80VWuXI2" name="ページ1">
        <mxGraphModel dx="2980" dy="1616" grid="1" gridSize="10" guides="1" tooltips="1" connect="1" arrows="1" fold="1" page="1" pageScale="1" pageWidth="1600" pageHeight="900" math="0" shadow="0">
            <root>
                <mxCell id="0"/>
                <mxCell id="1" parent="0"/>
                <mxCell id="2" value="&lt;div class=&quot;sessionsLayoutHeader_title&quot; style=&quot;box-sizing: inherit ; margin: 30px 0px ; letter-spacing: 1px ; font-size: 36px ; font-weight: 400 ; color: rgb(74 , 74 , 74) ; font-style: normal ; text-indent: 0px ; text-transform: none ; word-spacing: 0px ; background-color: rgb(255 , 255 , 255)&quot;&gt;&lt;br&gt;&lt;/div&gt;" style="html=1;shadow=0;dashed=0;fontSize=16;align=left;spacing=15;container=0;fillColor=#fff;fontColor=#333333;strokeColor=#666666;" vertex="1" parent="1">
                    <mxGeometry y="-1" width="1600" height="900" as="geometry"/>
                </mxCell>
                <mxCell id="13" value="" style="endArrow=none;html=1;strokeColor=#5c93bb2b;strokeWidth=3;entryX=1;entryY=0.067;entryDx=0;entryDy=0;entryPerimeter=0;exitX=-0.001;exitY=0.069;exitDx=0;exitDy=0;exitPerimeter=0;" edge="1" parent="1" source="2" target="2">
                    <mxGeometry width="50" height="50" relative="1" as="geometry">
                        <mxPoint x="-0.4" y="70" as="sourcePoint"/>
                        <mxPoint x="1759.6" as="targetPoint"/>
                    </mxGeometry>
                </mxCell>
                <mxCell id="14" value="ロゴ" style="rounded=0;whiteSpace=wrap;html=1;strokeWidth=3;fillColor=#dae8fc;strokeColor=#6c8ebf;fontStyle=1;fontSize=26;labelBackgroundColor=none;fontColor=#301AF0;" vertex="1" parent="1">
                    <mxGeometry x="39.6" y="10" width="120" height="50" as="geometry"/>
                </mxCell>
                <mxCell id="15" value="ユーザー名 / テストテストテストテストテス" style="text;strokeColor=none;fillColor=none;align=left;verticalAlign=middle;rounded=0;labelBackgroundColor=none;fontSize=18;fontColor=#000000d1;horizontal=1;whiteSpace=wrap;html=1;" vertex="1" parent="1">
                    <mxGeometry x="605" y="187" width="390" height="40" as="geometry"/>
                </mxCell>
                <mxCell id="18" value="自己紹介メッセージ / テストテストテストテストテストテストテストテストテストテストテストテストテストテストテストテストテストテストテストテストテストテストテストテストテストテストテストテストテストテストテストテストテストテストテストテストテストテストテストテ" style="text;strokeColor=none;fillColor=none;align=left;verticalAlign=top;rounded=0;labelBackgroundColor=none;fontSize=12;fontColor=#000000d1;horizontal=1;whiteSpace=wrap;html=1;" vertex="1" parent="1">
                    <mxGeometry x="605" y="220" width="390" height="60" as="geometry"/>
                </mxCell>
                <mxCell id="23" value="フォロー中" style="html=1;shadow=0;dashed=1;shape=mxgraph.bootstrap.rrect;rSize=5;fillColor=#FFFFFF;strokeColor=#3EA8FF;align=center;spacing=15;fontSize=14;fontColor=#3EA8FF;" vertex="1" parent="1">
                    <mxGeometry x="1630" y="115" width="120" height="30" as="geometry"/>
                </mxCell>
                <mxCell id="22" value="フォロー" style="html=1;shadow=0;dashed=1;shape=mxgraph.bootstrap.rrect;rSize=5;fillColor=#3EA8FF;strokeColor=#FFFFFF;align=center;spacing=15;fontSize=14;fontColor=#FFFFFF;fontStyle=1" vertex="1" parent="1">
                    <mxGeometry x="1630" y="170" width="120" height="30" as="geometry"/>
                </mxCell>
                <mxCell id="20" value="&lt;font style=&quot;font-size: 12px&quot;&gt;プロフィール編集&lt;/font&gt;" style="html=1;shadow=0;dashed=1;shape=mxgraph.bootstrap.rrect;rSize=5;fillColor=#fff;strokeColor=#6c767d;align=center;spacing=15;fontSize=14;fontColor=#6c767d;" vertex="1" parent="1">
                    <mxGeometry x="870" y="150" width="120" height="30" as="geometry"/>
                </mxCell>
                <mxCell id="25" value="" style="verticalLabelPosition=bottom;shadow=0;dashed=0;align=center;html=1;verticalAlign=top;strokeWidth=1;shape=mxgraph.mockup.containers.userFemale;strokeColor=#666666;strokeColor2=#008cff;fontSize=12;fontColor=#FFFFFF;fillColor=#3EA8FF;" vertex="1" parent="1">
                    <mxGeometry x="610" y="90" width="90" height="90" as="geometry"/>
                </mxCell>
                <mxCell id="71" value="記事作成" style="html=1;shadow=0;dashed=1;shape=mxgraph.bootstrap.rrect;rSize=5;fillColor=#3EA8FF;strokeColor=#FFFFFF;align=center;spacing=15;fontSize=14;fontColor=#FFFFFF;fontStyle=1" vertex="1" parent="1">
                    <mxGeometry x="1445" y="15" width="120" height="30" as="geometry"/>
                </mxCell>
                <mxCell id="72" value="" style="group" vertex="1" connectable="0" parent="1">
                    <mxGeometry x="-1.9999999999998863" y="330" width="1601.6" height="510" as="geometry"/>
                </mxCell>
                <mxCell id="26" value="" style="html=1;shadow=0;dashed=0;shape=mxgraph.bootstrap.rrect;rSize=5;strokeColor=none;html=1;whiteSpace=wrap;fillColor=#FFFFFF;fontColor=#000000;fontSize=12;strokeWidth=1;align=center;" vertex="1" parent="72">
                    <mxGeometry x="434.9999999999999" width="730" height="510" as="geometry"/>
                </mxCell>
                <mxCell id="27" value="" style="html=1;shadow=0;dashed=0;shape=mxgraph.bootstrap.topButton;strokeColor=inherit;fillColor=none;rSize=5;perimeter=none;whiteSpace=wrap;resizeWidth=1;align=center;spacing=20;fontSize=14;fontColor=#FFFFFF;" vertex="1" parent="26">
                    <mxGeometry width="620" height="50" relative="1" as="geometry"/>
                </mxCell>
                <mxCell id="31" value="&lt;span style=&quot;font-size: 20px&quot;&gt;&lt;b&gt;レシピ一覧&lt;/b&gt;&lt;/span&gt;" style="perimeter=none;html=1;whiteSpace=wrap;fillColor=none;strokeColor=none;resizeWidth=1;verticalAlign=top;align=left;spacing=20;spacingTop=-10;fontSize=14;fontColor=#212529;dashed=1;" vertex="1" parent="26">
                    <mxGeometry width="620" height="120" relative="1" as="geometry">
                        <mxPoint y="50" as="offset"/>
                    </mxGeometry>
                </mxCell>
                <mxCell id="56" value="" style="group" vertex="1" connectable="0" parent="26">
                    <mxGeometry x="65" y="120" width="600" height="180" as="geometry"/>
                </mxCell>
                <mxCell id="40" value="" style="shadow=0;dashed=0;shape=mxgraph.bootstrap.rightButton;rSize=5;strokeColor=#DFDFDF;fillColor=#ffffff;fontColor=#000000;verticalAlign=top;align=left;spacing=20;spacingBottom=0;fontSize=14;spacingTop=160;" vertex="1" parent="56">
                    <mxGeometry width="180" height="180" as="geometry">
                        <mxPoint x="-10" y="-210" as="offset"/>
                    </mxGeometry>
                </mxCell>
                <mxCell id="41" value="Image cap" style="html=1;shadow=0;dashed=0;shape=mxgraph.basic.corner_round_rect;dx=2;flipH=1;perimeter=none;whiteSpace=wrap;fillColor=#3EA8FF;strokeColor=#DFDFDF;fontColor=#DEE2E6;resizeWidth=1;fontSize=18;" vertex="1" parent="40">
                    <mxGeometry width="180" height="50" relative="1" as="geometry"/>
                </mxCell>
                <mxCell id="52" value="" style="shadow=0;dashed=0;shape=mxgraph.bootstrap.rightButton;rSize=5;strokeColor=#DFDFDF;fillColor=#ffffff;fontColor=#000000;verticalAlign=top;align=left;spacing=20;spacingBottom=0;fontSize=14;spacingTop=160;" vertex="1" parent="56">
                    <mxGeometry x="210" width="180" height="180" as="geometry">
                        <mxPoint x="-10" y="-210" as="offset"/>
                    </mxGeometry>
                </mxCell>
                <mxCell id="53" value="Image cap" style="html=1;shadow=0;dashed=0;shape=mxgraph.basic.corner_round_rect;dx=2;flipH=1;perimeter=none;whiteSpace=wrap;fillColor=#3EA8FF;strokeColor=#DFDFDF;fontColor=#DEE2E6;resizeWidth=1;fontSize=18;" vertex="1" parent="52">
                    <mxGeometry width="180" height="50" relative="1" as="geometry"/>
                </mxCell>
                <mxCell id="54" value="" style="shadow=0;dashed=0;shape=mxgraph.bootstrap.rightButton;rSize=5;strokeColor=#DFDFDF;fillColor=#ffffff;fontColor=#000000;verticalAlign=top;align=left;spacing=20;spacingBottom=0;fontSize=14;spacingTop=160;" vertex="1" parent="56">
                    <mxGeometry x="420" width="180" height="180" as="geometry">
                        <mxPoint x="-10" y="-210" as="offset"/>
                    </mxGeometry>
                </mxCell>
                <mxCell id="55" value="Image cap" style="html=1;shadow=0;dashed=0;shape=mxgraph.basic.corner_round_rect;dx=2;flipH=1;perimeter=none;whiteSpace=wrap;fillColor=#3EA8FF;strokeColor=#DFDFDF;fontColor=#DEE2E6;resizeWidth=1;fontSize=18;" vertex="1" parent="54">
                    <mxGeometry width="180" height="50" relative="1" as="geometry"/>
                </mxCell>
                <mxCell id="64" value="" style="group" vertex="1" connectable="0" parent="26">
                    <mxGeometry x="65" y="330" width="600" height="180" as="geometry"/>
                </mxCell>
                <mxCell id="65" value="" style="shadow=0;dashed=0;shape=mxgraph.bootstrap.rightButton;rSize=5;strokeColor=#DFDFDF;fillColor=#ffffff;fontColor=#000000;verticalAlign=top;align=left;spacing=20;spacingBottom=0;fontSize=14;spacingTop=160;" vertex="1" parent="64">
                    <mxGeometry width="180" height="180" as="geometry">
                        <mxPoint x="-10" y="-210" as="offset"/>
                    </mxGeometry>
                </mxCell>
                <mxCell id="66" value="Image cap" style="html=1;shadow=0;dashed=0;shape=mxgraph.basic.corner_round_rect;dx=2;flipH=1;perimeter=none;whiteSpace=wrap;fillColor=#3EA8FF;strokeColor=#DFDFDF;fontColor=#DEE2E6;resizeWidth=1;fontSize=18;" vertex="1" parent="65">
                    <mxGeometry width="180" height="50" relative="1" as="geometry"/>
                </mxCell>
                <mxCell id="67" value="" style="shadow=0;dashed=0;shape=mxgraph.bootstrap.rightButton;rSize=5;strokeColor=#DFDFDF;fillColor=#ffffff;fontColor=#000000;verticalAlign=top;align=left;spacing=20;spacingBottom=0;fontSize=14;spacingTop=160;" vertex="1" parent="64">
                    <mxGeometry x="210" width="180" height="180" as="geometry">
                        <mxPoint x="-10" y="-210" as="offset"/>
                    </mxGeometry>
                </mxCell>
                <mxCell id="68" value="Image cap" style="html=1;shadow=0;dashed=0;shape=mxgraph.basic.corner_round_rect;dx=2;flipH=1;perimeter=none;whiteSpace=wrap;fillColor=#3EA8FF;strokeColor=#DFDFDF;fontColor=#DEE2E6;resizeWidth=1;fontSize=18;" vertex="1" parent="67">
                    <mxGeometry width="180" height="50" relative="1" as="geometry"/>
                </mxCell>
                <mxCell id="69" value="" style="shadow=0;dashed=0;shape=mxgraph.bootstrap.rightButton;rSize=5;strokeColor=#DFDFDF;fillColor=#ffffff;fontColor=#000000;verticalAlign=top;align=left;spacing=20;spacingBottom=0;fontSize=14;spacingTop=160;" vertex="1" parent="64">
                    <mxGeometry x="420" width="180" height="180" as="geometry">
                        <mxPoint x="-10" y="-210" as="offset"/>
                    </mxGeometry>
                </mxCell>
                <mxCell id="70" value="Image cap" style="html=1;shadow=0;dashed=0;shape=mxgraph.basic.corner_round_rect;dx=2;flipH=1;perimeter=none;whiteSpace=wrap;fillColor=#3EA8FF;strokeColor=#DFDFDF;fontColor=#DEE2E6;resizeWidth=1;fontSize=18;" vertex="1" parent="69">
                    <mxGeometry width="180" height="50" relative="1" as="geometry"/>
                </mxCell>
                <mxCell id="28" value="レシピ" style="html=1;shadow=0;dashed=0;shape=mxgraph.bootstrap.tabTop;strokeColor=#DFDFDF;fillColor=#ffffff;rSize=5;perimeter=none;resizeWidth=1;align=center;spacing=20;fontSize=14;fontColor=#3EA8FF;" vertex="1" parent="26">
                    <mxGeometry width="62" height="40" relative="1" as="geometry">
                        <mxPoint x="10" y="11" as="offset"/>
                    </mxGeometry>
                </mxCell>
                <mxCell id="34" value="" style="endArrow=none;html=1;strokeColor=#dfdfdf;strokeWidth=1;entryX=1;entryY=0.067;entryDx=0;entryDy=0;entryPerimeter=0;exitX=-0.001;exitY=0.069;exitDx=0;exitDy=0;exitPerimeter=0;" edge="1" parent="72">
                    <mxGeometry width="50" height="50" relative="1" as="geometry">
                        <mxPoint y="51.80000000000001" as="sourcePoint"/>
                        <mxPoint x="1601.6" y="49.99999999999994" as="targetPoint"/>
                    </mxGeometry>
                </mxCell>
                <mxCell id="73" value="&lt;font style=&quot;font-size: 12px&quot;&gt;50 フォロワー&lt;/font&gt;" style="html=1;shadow=0;dashed=1;shape=mxgraph.bootstrap.rrect;rSize=5;fillColor=#fff;strokeColor=none;align=center;spacing=15;fontSize=12;fontColor=#6c767d;" vertex="1" parent="1">
                    <mxGeometry x="740" y="300" width="120" height="30" as="geometry"/>
                </mxCell>
                <mxCell id="77" value="" style="group" vertex="1" connectable="0" parent="1">
                    <mxGeometry x="603" y="300" width="395" height="30" as="geometry"/>
                </mxCell>
                <mxCell id="75" value="&lt;font style=&quot;font-size: 12px&quot;&gt;投稿 6&lt;/font&gt;" style="html=1;shadow=0;dashed=1;shape=mxgraph.bootstrap.rrect;rSize=5;fillColor=#fff;strokeColor=none;align=center;spacing=15;fontSize=12;fontColor=#6c767d;" vertex="1" parent="77">
                    <mxGeometry width="130" height="30" as="geometry"/>
                </mxCell>
                <mxCell id="76" value="&lt;font style=&quot;font-size: 12px&quot;&gt;フォロー 50&lt;/font&gt;" style="html=1;shadow=0;dashed=1;shape=mxgraph.bootstrap.rrect;rSize=5;fillColor=#fff;strokeColor=none;align=center;spacing=15;fontSize=12;fontColor=#6c767d;" vertex="1" parent="77">
                    <mxGeometry x="130" width="130" height="30" as="geometry"/>
                </mxCell>
                <mxCell id="74" value="&lt;font style=&quot;font-size: 12px&quot;&gt;フォロワー 50&lt;/font&gt;" style="html=1;shadow=0;dashed=1;shape=mxgraph.bootstrap.rrect;rSize=5;fillColor=#fff;strokeColor=none;align=center;spacing=15;fontSize=12;fontColor=#6c767d;" vertex="1" parent="77">
                    <mxGeometry x="260" width="130" height="30" as="geometry"/>
                </mxCell>
            </root>
        </mxGraphModel>
    </diagram>
</mxfile>